# xmcd CD database file
#
# Track frame offsets:
#	150
#	14020
#	27561
#	40497
#	52684
#	66484
#	80064
#	90139
#	101476
#	113463
#	126406
#	138992
#	151653
#	164401
#	178344
#	190388
#	200997
#	214306
#	228019
#	241960
#	252883
#	264844
#	279013
#
# Disc length: 3914 seconds
#
# Revision: 0
# Processed by: cddbd v1.5.2PL0 Copyright (c) Steve Scherf et al.
# Submitted via: CDex 1.50
#
DISCID=3f0f4817
DTITLE=Eddie "Lockjaw" Davis - But Beautyfull
DYEAR=1900
DGENRE=Jazz
TTITLE0=01 Afternoon in a doghouse
TTITLE1=02 Surgerey
TTITLE2=03 Athletes foot
TTITLE3=04 Lockjaw
TTITLE4=05 Red pepper
TTITLE5=06 Maternity
TTITLE6=07 Just a mistery
TTITLE7=08 Spinal
TTITLE8=09 Hollerin and screaming
TTITLE9=10 Fracture
TTITLE10=11Stealing trash
TTITLE11=12 Callin Dr Jazz
TTITLE12=13 Foxy
TTITLE13=14 Sheila
TTITLE14=15 Licks a plenty
TTITLE15=16 Mintons madhouse
TTITLE16=17 Music goes down around
TTITLE17=18 Real gone guy
TTITLE18=19 But beautyful
TTITLE19=20 Raven at the heaven
TTITLE20=21 Lockjaws bounce
TTITLE21=22 Huckle bug
TTITLE22=23 Leaping on lenox
EXTD=
EXTT0=
EXTT1=
EXTT2=
EXTT3=
EXTT4=
EXTT5=
EXTT6=
EXTT7=
EXTT8=
EXTT9=
EXTT10=
EXTT11=
EXTT12=
EXTT13=
EXTT14=
EXTT15=
EXTT16=
EXTT17=
EXTT18=
EXTT19=
EXTT20=
EXTT21=
EXTT22=
PLAYORDER=
